<svg version="1.2" xmlns="http://www.w3.org/2000/svg" viewBox="0 0 788 238" width="788" height="238">
	<title>logo</title>
	<defs>
		<clipPath clipPathUnits="userSpaceOnUse" id="cp1">
			<path d="m890 621h-1000v-1000h1000z"/>
		</clipPath>
	</defs>
	<style>
		.s0 { fill: #000000 } 
		.s1 { fill: #4d7cf5 } 
	</style>
	<g id="Background">
		<g id="&lt;Clip Group&gt;" clip-path="url(#cp1)">
			<g id="&lt;Group&gt;">
			</g>
			<g id="&lt;Group&gt;" style="opacity: 0">
			</g>
		</g>
	</g>
	<g id="Object">
		<g id="Logo">
			<g id="Logotype">
				<path id="lloColis" class="s0" aria-label="lloColis"  d="m232 72v2.7h8.8v107.1h-8.2v2.7h44.5v-2.7h-8.4v-109.8zm47.4 0v2.7h8.9v107.1h-8.3v2.7h44.6v-2.7h-8.4v-109.8zm96.4 83c0 19.5-0.4 28.3-9 28.3-9.1 0-9.4-11.2-9.4-28.6v-11.7c0-17 0.4-28.7 9.6-28.7 8.4 0 8.8 11.7 8.8 27.9zm-47.2-5.8c0 23.4 12.7 36.9 37.9 36.9 26.7 0 38.1-13.7 38.1-38.3 0-24.3-12-36.1-37.2-36.1-24.1 0-38.8 12.9-38.8 37.5zm230.7 5.8c0 19.5-0.5 28.4-9 28.4-9.2 0-9.5-11.3-9.5-28.7v-11.7c0-16.9 0.5-28.6 9.6-28.6 8.4 0 8.9 11.7 8.9 27.9zm-47.3-5.9c0 23.4 12.8 36.9 38 36.9 26.7 0 38.1-13.6 38.1-38.2 0-24.3-12-36.2-37.2-36.2-24.2 0-38.9 12.9-38.9 37.5zm79.7-77.1v2.7h8.8v107.1h-8.2v2.7h44.5v-2.7h-8.4v-109.8zm55.4 16.8c0 6.3 2.8 14 15 14 10.8 0 15.1-6.2 15.1-14.1 0-9.2-5.5-13.8-14.8-13.8-11.3 0-15.3 6.6-15.3 13.9zm-8 24.3v2.7h8.9v66h-8.3v2.7h44.6v-2.7h-8.4v-68.7zm51.6 72.9h1.8c2.4-4.2 4.5-5.5 6.4-5.5 0.6 0 2 0.6 2.9 1.2 5.7 2.8 10.8 4.3 18 4.3 16.9 0 28-8.5 28-25.6 0-17.7-13.2-22.5-25-25.7-9.9-2.7-18.9-4.3-18.9-11.2 0-4.7 4-8.7 13.9-8.7 10.7 0 18.3 5.7 23.7 19.5h1.8v-23h-1.6c-2 3.8-3 5-5.3 5-1.8 0-2.4-0.5-4.2-1.2-4-1.8-8.5-3.5-15.1-3.5-15.9 0-26.4 10.1-26.4 25.4 0 16.6 13.3 21.3 25.3 24.6 11.4 3.1 18.8 4.6 18.8 11.4 0 5.7-4.2 9.7-15.3 9.7-12.3 0-21.5-5.2-27-23.5h-1.8z"/>
				<path id="lloColis" class="s1" aria-label="lloColis"  d="m467.3 80.9c12.9 0 21.9 12.7 30.2 31.2h2.7l-1.2-32.6h-1.7c-1 2-1.6 3-4 3-5.3 0-12.5-4.6-28.1-4.6-30.7 0-51.7 19.2-51.7 55.5 0 35.8 19.5 52.6 51.3 52.6 16.5 0 24.7-4.6 29.8-4.6 2.4 0 3 1 4.1 3h1.6l1.1-33.5h-2.7c-8.4 19.5-18.2 32.1-30.3 32.1-16.4 0-24.3-17.8-24.3-45.4v-11.9c0-31 8.1-44.8 23.2-44.8z"/>
			</g>
			<g id="Logogram">
			</g>
		</g>
		<g id="&lt;Group&gt;">
			<path id="&lt;Path&gt;" class="s1" d="m127.4 13.9c-18.6 0-35.3 11.7-41.7 29.2l-52.2 142.8h56.6l5.1-15.6 16.5-50.9 15.5-47.9 10.1 31v0.1l5.5 16.8 17.1 52.9 4.5 13.6h56.8l-52-142.7c-6.4-17.6-23.1-29.3-41.8-29.3z"/>
			<path id="&lt;Path&gt;" class="s1" d="m142.2 144.1c0 8.3-6.7 14.9-14.9 14.9-8.2 0-14.8-6.6-14.8-14.9 0-8.2 6.6-14.8 14.8-14.8 8.2 0 14.9 6.6 14.9 14.8z"/>
		</g>
	</g>
</svg>